<svg width="60" height="60" viewBox="0 0 60 60" fill="none" xmlns="http://www.w3.org/2000/svg">
<path d="M24.5455 32.078V38.3942H20.4545H16.3636C15.6105 38.3942 15 39.0047 15 39.7578C15.0001 40.5109 15.6106 41.1214 16.3636 41.1214H43.6364C44.3894 41.1214 44.9999 40.5109 45 39.7578C45 39.0047 44.3895 38.3942 43.6364 38.3942H42.2727V32.078L42.2728 31.965C42.2733 31.3641 42.2737 30.8376 42.1431 30.3295C42.029 29.8856 41.8411 29.4642 41.5869 29.0822C41.2961 28.6453 40.9042 28.2938 40.4568 27.8925L40.3733 27.8175L37.2368 24.9997L37.2059 24.972C36.7193 24.5348 36.2971 24.1554 35.9224 23.8682C35.5264 23.5647 35.102 23.2982 34.5898 23.1438C33.8198 22.9117 32.9979 22.9117 32.2279 23.1438C31.7113 23.2996 31.2756 23.5769 30.8767 23.8824C30.4848 24.1826 30.0434 24.5785 29.5419 25.029L26.444 27.8184L26.3585 27.8952C25.9138 28.2939 25.521 28.6462 25.2308 29.0822C24.9769 29.4638 24.7884 29.8851 24.6742 30.3295C24.5442 30.835 24.5448 31.3597 24.5454 31.9546L24.5455 32.078Z" fill="black"/>
<path fill-rule="evenodd" clip-rule="evenodd" d="M25.687 18.8789C26.4065 18.8789 27.0277 18.8791 27.5386 18.9209C28.0775 18.965 28.6137 19.0624 29.1294 19.3252C29.8973 19.7166 30.5246 20.3414 30.9175 21.1123C31.0313 21.3358 31.1125 21.5641 31.1733 21.7939C30.6559 22.0245 30.2281 22.3174 29.8814 22.583C29.4838 22.8875 29.056 23.267 28.6284 23.6504C28.6238 23.348 28.6173 23.0901 28.604 22.9268C28.5737 22.5551 28.5217 22.4171 28.4878 22.3506C28.3578 22.0956 28.149 21.8864 27.8911 21.7549C27.8235 21.7205 27.6859 21.6689 27.3159 21.6387C26.9299 21.6071 26.4223 21.6064 25.6362 21.6064H23.0005C22.2145 21.6064 21.7063 21.6071 21.3198 21.6387C20.9499 21.6689 20.8121 21.7206 20.7446 21.7549C20.4881 21.8856 20.2797 22.0941 20.1489 22.3506C20.1146 22.418 20.063 22.5556 20.0327 22.9258C20.0012 23.3123 19.9995 23.8204 19.9995 24.6064V36.7578H17.273V24.5566C17.2729 23.8368 17.2722 23.2156 17.314 22.7041C17.358 22.165 17.4554 21.6283 17.7183 21.1123C18.1104 20.3426 18.7357 19.7164 19.5054 19.3242C20.0213 19.0613 20.5582 18.965 21.0972 18.9209C21.353 18.9 21.6366 18.889 21.9458 18.8838L22.9497 18.8789H25.687Z" fill="black"/>
</svg>
