<svg width="36" height="36" viewBox="0 0 36 36" fill="none" xmlns="http://www.w3.org/2000/svg">
<path d="M7.7241 1.44824H1.931C1.66438 1.44824 1.44824 1.66438 1.44824 1.931V7.7241" stroke="black" stroke-width="2.89655"/>
<path d="M28 1.44824H33.7931C34.0597 1.44824 34.2759 1.66438 34.2759 1.931V7.7241" stroke="black" stroke-width="2.89655"/>
<path d="M34.2759 28V33.7931C34.2759 34.0597 34.0597 34.2759 33.7931 34.2759H28" stroke="black" stroke-width="2.89655"/>
<path d="M1.44824 28V33.7931C1.44824 34.0597 1.66438 34.2759 1.931 34.2759H7.7241" stroke="black" stroke-width="2.89655"/>
<path d="M17.6204 4.00069C17.7698 3.91445 17.9538 3.91445 18.1032 4.00069L29.7448 10.722C29.8942 10.8082 29.9862 10.9676 29.9862 11.14V24.5826C29.9862 24.7551 29.8942 24.9145 29.7448 25.0007L18.1032 31.722C17.9538 31.8082 17.7698 31.8082 17.6204 31.722L5.97884 25.0007C5.82947 24.9145 5.73746 24.7551 5.73746 24.5826V11.14C5.73746 10.9676 5.82947 10.8082 5.97884 10.722L17.6204 4.00069Z" fill="black"/>
<path d="M17.8621 18.3445V25.5859M17.8621 18.3445L24.6208 14.4824M17.8621 18.3445L11.1035 14.4824" stroke="#EEEEEE" stroke-width="2.89655" stroke-linecap="round"/>
</svg>
